<?xml version="1.0" encoding="UTF-8" standalone="no"?><!DOCTYPE svg PUBLIC "-//W3C//DTD SVG 1.1//EN" "http://www.w3.org/Graphics/SVG/1.1/DTD/svg11.dtd"><svg width="100%" height="100%" viewBox="0 0 417 417" version="1.1" xmlns="http://www.w3.org/2000/svg" xmlns:xlink="http://www.w3.org/1999/xlink" xml:space="preserve" xmlns:serif="http://www.serif.com/" style="fill-rule:evenodd;clip-rule:evenodd;stroke-linejoin:round;stroke-miterlimit:2;"><rect id="Small---Dark---Colour" serif:id="Small - Dark - Colour" x="0" y="0" width="416.667" height="416.667" style="fill:none;"/><clipPath id="_clip1"><rect x="0" y="0" width="416.667" height="416.667"/></clipPath><g clip-path="url(#_clip1)"><g><path d="M230.305,-0l-21.854,21.854l-0.118,-0.118l-186.597,186.597l186.597,186.598l186.598,-186.598l-141.964,-141.964l24.671,-24.671l139.029,139.028l-0,55.215l-180.726,180.726l-55.215,-0l-180.726,-180.726l0,-55.215l180.726,-180.726l49.579,-0Z" style="fill:#212529;"/><g id="Bug"><path id="Body" d="M215.527,142.722l-72.976,72.976l10.996,10.996l-10.237,10.237l-15.155,-0l0.068,9.598l19.802,0.069l12.713,-12.714l16.644,16.642l-22.473,22.678l7.19,7.191l22.53,-22.618l16.624,16.557l-12.763,12.763l-0,19.725l9.666,0l0.1,-15.246l10.085,-10.089l2.109,2.109l53.216,-12.587l-62.446,-62.446l7.191,-7.191l62.446,62.446l12.532,-53.271l-2.077,-2.031l10.054,-10.112l15.311,0.043l0.055,-9.722l-19.815,0.056l-12.857,12.746l-16.491,-16.602l22.612,-22.488l-7.176,-7.329l-22.588,22.515l-16.734,-16.584l12.662,-12.616l0.002,-20.031l-9.568,0.053l0.098,15.065l-10.274,10.274l-11.076,-11.062Z" style="fill:#149414;"/><path id="Head" d="M208.341,135.545l-22.986,5.431l-3.85,-16.067l-9.879,2.413l3.725,16.018l-26.035,6.151l-6.143,26l-16.101,-3.735l-2.315,9.901l16.077,3.731l-5.464,23.128l72.971,-72.971Z" style="fill:#149414;"/></g></g></g></svg>